<svg id="modal_screen" xmlns="http://www.w3.org/2000/svg" width="500" height="300" viewBox="0 0 500 300">
  <defs>
    <style>
      .modal_cls-1 {
        fill: #a6e9ff;
        fill-opacity: 0.1;
        stroke-width: 0.5px;
      }

      .modal_cls-1, .modal_cls-3 {
        stroke: #73dcff;
        stroke-miterlimit: 10;
      }

      .modal_cls-2, .modal_cls-3 {
        fill: none;
      }

      .modal_cls-3 {
        stroke-width: 2px;
      }

      .modal_cls-4 {
        opacity: 0.3;
      }

      .modal_cls-5 {
        fill: #2ab7dd;
      }

      .modal_cls-6 {
        opacity: 0.7;
      }

      .modal_cls-7, .modal_cls-8 {
        fill: #73dcff;
      }

      .modal_cls-8 {
        fill-opacity: 0;
      }
    </style>
  </defs>
  <title>modal</title>
  <polygon class="modal_cls-1" points="10.67 9.42 10.67 50.99 16.98 57.31 16.98 183.69 11.67 189.01 11.67 238.99 16.98 244.31 16.98 282.5 56.12 282.5 61.43 287.82 111.33 287.82 116.65 282.5 242.85 282.5 249.16 288.82 290.67 288.82 295.23 294 493 294 489.13 290.58 489.13 249.01 482.81 242.69 482.81 116.31 488.13 110.99 488.13 61.01 483.12 56 462.84 56 443.37 36.5 443.37 17.19 438.37 12.18 388.46 12.18 383.15 17.5 256.95 17.5 250.63 11.18 209.13 11.18 203.69 5 6 5 6 5.29 10.67 9.42"/>
  <rect id="movie_placeholder" class="modal_cls-2" x="17.5" y="19" width="463.5" height="261.5"/>
  <line class="modal_cls-3" x1="479.29" y1="21.3" x2="464.29" y2="36.3"/>
  <line class="modal_cls-3" x1="463.58" y1="21.3" x2="478.58" y2="36.3"/>
  <g>
    <g class="modal_cls-4">
      <path class="modal_cls-5" d="M499.75,155.59V-.1h-17V.4H343.56l-5.32,5.32h-50L282.94.4H199.25l9.42,10.68h41.57l6.32,6.32H382.94l5.32-5.32h50l5,5V36.9l19,19h20.81l5,5v50l-5.32,5.32V242.59l6.32,6.32v41.57l10.68,9.42V216.21l-5.32-5.32v-50ZM482.21,38.86a14.88,14.88,0,1,1,0-21A14.9,14.9,0,0,1,482.21,38.86Z"/>
    </g>
    <g class="modal_cls-6">
      <path class="modal_cls-7" d="M499.5.15V155.49l-5.25,5.25-.07.07V211l.07.07,5.25,5.25v83l-10.18-9V248.81l-.07-.07L483,242.49V116.31l5.25-5.25.07-.07V60.81l-.07-.07-5-5-.08-.07H462.35L443.5,36.8V17l-.07-.08-5-5-.07-.07H388.16l-.07.07-5.25,5.25H256.66l-6.25-6.25-.07-.07H208.78L199.8.65h83l5.25,5.25.07.07h50.18l.07-.07L343.66.65H483V.15h16.5M471.69,43.46A15.12,15.12,0,1,0,461,39a15,15,0,0,0,10.7,4.43M499.75-.1h-17V.4H343.56l-5.32,5.32h-50L282.94.4H199.25l9.42,10.68h41.57l6.32,6.32H382.94l5.32-5.32h50l5,5V36.9l19,19h20.81l5,5v50l-5.32,5.32V242.59l6.32,6.32v41.57l10.68,9.42V216.21l-5.32-5.32v-50l5.32-5.32V-.1ZM471.69,43.21a14.87,14.87,0,1,1,10.52-4.35,14.83,14.83,0,0,1-10.52,4.35Z"/>
    </g>
  </g>
  <g>
    <g class="modal_cls-4">
      <path class="modal_cls-5" d="M291.33,288.82H249.76l-6.32-6.32H117.06l-5.32,5.32h-50l-5.32-5.32H17.25V244.31L11.93,239V189l5.32-5.32V57.31L10.93,51V9.42L.25,0V83.69L5.57,89v50L.25,144.31V300h17v-.5H156.44l5.32-5.32h50l5.32,5.32h83.69ZM22.75,296a4.5,4.5,0,1,1,4.5-4.5A4.49,4.49,0,0,1,22.75,296Zm14,0a4.5,4.5,0,1,1,4.5-4.5A4.49,4.49,0,0,1,36.75,296Zm14,0a4.5,4.5,0,1,1,4.5-4.5A4.49,4.49,0,0,1,50.75,296Z"/>
    </g>
    <g class="modal_cls-6">
      <path class="modal_cls-7" d="M.5.55l10.18,9V51.09l.07.07L17,57.41V183.59l-5.25,5.25-.07.07v50.18l.07.07L17,244.41v38.34H56.34L61.59,288l.07.07h50.18l.07-.07,5.25-5.25H243.34l6.25,6.25.07.07h41.56l9,10.18h-83L211.91,294l-.07-.07H161.66l-.07.07-5.25,5.25H17v.5H.5V144.41l5.25-5.25.07-.07V88.91l-.07-.07L.5,83.59V.55m50.25,295.7A4.75,4.75,0,1,0,46,291.5a4.75,4.75,0,0,0,4.75,4.75m-14,0A4.75,4.75,0,1,0,32,291.5a4.75,4.75,0,0,0,4.75,4.75m-14,0A4.75,4.75,0,1,0,18,291.5a4.75,4.75,0,0,0,4.75,4.75M.25,0V83.69L5.57,89v50L.25,144.31V300h17v-.5H156.44l5.32-5.32h50l5.32,5.32h83.69l-9.42-10.68H249.76l-6.32-6.32H117.06l-5.32,5.32h-50l-5.32-5.32H17.25V244.31L11.93,239V189l5.32-5.32V57.31L10.93,51V9.42L.25,0Zm50.5,296a4.5,4.5,0,1,1,4.5-4.5,4.49,4.49,0,0,1-4.5,4.5Zm-14,0a4.5,4.5,0,1,1,4.5-4.5,4.49,4.49,0,0,1-4.5,4.5Zm-14,0a4.5,4.5,0,1,1,4.5-4.5,4.49,4.49,0,0,1-4.5,4.5Z"/>
    </g>
  </g>
  <polygon id="close_screen" class="modal_cls-8" points="448 9 448 36 464 52 494 52 493 9 448 9"/>
</svg>
