<svg id="Layer_1" data-name="Layer 1" xmlns="http://www.w3.org/2000/svg" width="500" height="300" viewBox="0 0 500 300">
  <defs>
    <style>
      .modal_cls-1 {
        opacity: 0.3;
      }

      .modal_cls-2 {
        fill: #2ab7dd;
      }

      .modal_cls-3 {
        fill: #a6e9ff;
        fill-opacity: 0.1;
        stroke: #73dcff;
        stroke-miterlimit: 10;
      }

      .modal_cls-4 {
        fill: none;
      }
    </style>
  </defs>
  <title>modal</title>
  <g>
    <g class="modal_cls-1">
      <path class="modal_cls-2" d="M.5,216.52l5.32-5.33V160.81L.5,155.48V.5h16V1H156l5.33,5.32h50.38L217,1h82.37l-8.54,9.68H249.31L243,17H117l-5.33-5.32H61.31L56,17H16.5V55.48l-5.32,5.33v50.38l5.32,5.33v126l-6.32,6.33v41.54L.5,298.89ZM8,39.5A4.5,4.5,0,1,0,12.5,44,4.51,4.51,0,0,0,8,39.5Zm0-12A4.5,4.5,0,1,0,12.5,32,4.51,4.51,0,0,0,8,27.5Zm0-12A4.5,4.5,0,1,0,12.5,20,4.51,4.51,0,0,0,8,15.5Z"/>
    </g>
    <path class="modal_cls-2" d="M16,1v.5H155.78l5,5,.29.29h50.8l.29-.29,5-5h81.06l-7.65,8.68H249.1l-.29.29-6,6H117.22l-5-5-.29-.29H61.1l-.29.29-5,5H16V55.28l-5,5-.29.29v50.8l.29.29,5,5V242.28l-6,6-.29.29v41.53L1,297.78V216.72l5-5,.29-.29V160.6L6,160.31l-5-5V1H16M8,25a5,5,0,1,0-5-5,5,5,0,0,0,5,5M8,37a5,5,0,1,0-5-5,5,5,0,0,0,5,5M8,49a5,5,0,1,0-5-5,5,5,0,0,0,5,5M17,0H0V155.69L5.32,161v50L0,216.31V300l10.68-9.42V249L17,242.69V116.31L11.68,111V61L17,55.69V17.5H56.19l5.32-5.32h50l5.32,5.32H243.19l6.32-6.32h41.57L300.5.5H216.81l-5.32,5.32h-50L156.19.5H17V0ZM8,24a4,4,0,1,1,4-4,4,4,0,0,1-4,4ZM8,36a4,4,0,1,1,4-4,4,4,0,0,1-4,4ZM8,48a4,4,0,1,1,4-4,4,4,0,0,1-4,4Z"/>
  </g>
  <g>
    <g class="modal_cls-1">
      <path class="modal_cls-2" d="M484,299.5V299H344.52l-5.33-5.32H288.81L283.48,299H201.11l8.54-9.68h41.54l6.33-6.32h126l5.33,5.32h50.38l5.33-5.32H484V244.52l5.32-5.33V188.81L484,183.48v-126l6.32-6.33V9.65L500,1.11V83.48l-5.32,5.33v50.38l5.32,5.33v155Zm4-13a4.5,4.5,0,1,0,4.5,4.5A4.51,4.51,0,0,0,488,286.5Zm-12,0a4.5,4.5,0,1,0,4.5,4.5A4.51,4.51,0,0,0,476,286.5Zm-12,0a4.5,4.5,0,1,0,4.5,4.5A4.51,4.51,0,0,0,464,286.5Z"/>
    </g>
    <path class="modal_cls-2" d="M499.5,2.22V83.28l-5,5-.29.29v50.8l.29.29,5,5V299h-15v-.5H344.72l-5-5-.29-.29H288.6l-.29.29-5,5H202.22l7.65-8.68H251.4l.29-.29,6-6H383.28l5,5,.29.29h50.8l.29-.29,5-5H484.5V244.72l5-5,.29-.29V188.6l-.29-.29-5-5V57.72l6-6,.29-.29V9.87l8.68-7.65M488,296a5,5,0,1,0-5-5,5,5,0,0,0,5,5m-12,0a5,5,0,1,0-5-5,5,5,0,0,0,5,5m-12,0a5,5,0,1,0-5-5,5,5,0,0,0,5,5M500.5,0,489.82,9.42V51l-6.32,6.32V183.69l5.32,5.32v50l-5.32,5.32V282.5H444.31L439,287.82H389l-5.32-5.32H257.31L251,288.82H209.42L200,299.5h83.69l5.32-5.32h50l5.32,5.32H483.5v.5h17V144.31L495.18,139V89l5.32-5.32V0ZM488,295a4,4,0,1,1,4-4,4,4,0,0,1-4,4Zm-12,0a4,4,0,1,1,4-4,4,4,0,0,1-4,4Zm-12,0a4,4,0,1,1,4-4,4,4,0,0,1-4,4Z"/>
  </g>
  <polygon class="modal_cls-3" points="291.08 11.18 249.51 11.18 243.19 17.5 116.81 17.5 111.49 12.18 61.51 12.18 56.19 17.5 17 17.5 17 55.69 11.68 61.01 11.68 110.99 17 116.31 17 242.69 10.68 249.01 10.68 290.58 6.8 294 204.85 294 209.42 288.82 250.99 288.82 257.31 282.5 383.69 282.5 389.01 287.82 438.99 287.82 444.31 282.5 483.5 282.5 483.5 244.31 488.82 238.99 488.82 189.01 483.5 183.69 483.5 57.31 489.82 50.99 489.82 9.42 494.83 5 296.53 5 291.08 11.18"/>
  <g id="HTML_placeholder">
    <rect class="modal_cls-4" x="17" y="18" width="466" height="264"/>
  </g>
</svg>
