<svg id="movie_dates" xmlns="http://www.w3.org/2000/svg" width="3340" height="350" viewBox="0 0 3340 350">
  <defs>
    <style>
      .cls-1, .cls-13, .cls-14, .cls-2, .cls-3, .cls-4 {
        fill: none;
        stroke-width: 3px;
      }

      .cls-1, .cls-11, .cls-13, .cls-14 {
        stroke: #74dcff;
      }

      .cls-1, .cls-11, .cls-13, .cls-14, .cls-2, .cls-3, .cls-4 {
        stroke-miterlimit: 10;
      }

      .cls-2, .cls-3 {
        stroke: #40cfff;
      }

      .cls-3 {
        stroke-dasharray: 3.39 3.39 7.91 3.39;
      }

      .cls-4 {
        stroke: #eaf6f9;
      }

      .cls-5 {
        opacity: 0.8;
      }

      .cls-6 {
        fill: #73dcff;
      }

      .cls-7, .cls-8 {
        fill: #74dcff;
      }

      .cls-8 {
        opacity: 0;
      }

      .cls-9 {
        opacity: 0.7;
      }

      .cls-10, .cls-11 {
        fill: #196a85;
      }

      .cls-11 {
        fill-opacity: 0.3;
        stroke-opacity: 0.8;
      }

      .cls-12 {
        font-size: 21px;
        font-family: UbuntuMono-Regular, Ubuntu Mono;
      }

      .cls-13 {
        stroke-dasharray: 7.39 7.39 12.32 7.39;
      }

      .cls-14 {
        stroke-dasharray: 7.39 12.32 7.39 7.39 12.32 7.39;
      }
    </style>
  </defs>
  <title>timeline_mockup</title>
  <filter id="blurMe">
    <feGaussianBlur in="SourceGraphic" stdDeviation="5" />
  </filter>
  <g id="timeline">
    <g id="steps">
      <line class="cls-1" x1="25" y1="264" x2="25" y2="286"/>
    </g>
    <g id="timeline_horisontially">
      <line class="cls-1" x1="10" y1="274.5" x2="3320" y2="274.5"/>
    </g>
  </g>
  <g id="dataPoint_low">
    <g>
      <line class="cls-2" x1="225" y1="285.5" x2="225" y2="282.5"/>
      <line class="cls-3" x1="225" y1="274.59" x2="225" y2="258.2"/>
      <line class="cls-2" x1="225" y1="256.5" x2="225" y2="253.5"/>
    </g>
    <circle id="blur" filter="url(#blurMe)" class="cls-4" cx="224.99" cy="191.49" r="42.5"/>
    <g id="outer_circle" class="cls-5">
      <path class="cls-6" d="M224.49,138.51v-5A58,58,0,0,0,167,191h5A53,53,0,0,1,224.49,138.51Z"/>
      <path class="cls-6" d="M278,191.49a53,53,0,0,1-53,53h-.5v5h.5a58,58,0,0,0,58-58c0-.16,0-.33,0-.5h-5C278,191.16,278,191.33,278,191.49Z"/>
    </g>
    <g id="thin_circle">
      <path id="thin_circle_visible" class="cls-7" d="M261.77,228.26a52,52,0,0,0,.35-73.18l-1.06,1.06a50.5,50.5,0,1,1-71.76-.36c.11-.12.24-.23.36-.34l-1.06-1.06-.37.34a52,52,0,0,0,73.54,73.54Z"/>
      <path id="thin_circle_hidden" class="cls-8" d="M173,191.5a52,52,0,0,0,51.5,52V242a50.5,50.5,0,1,1,51-50.49c0,.17,0,.33,0,.5H277c0-.17,0-.33,0-.5a52,52,0,0,0-104,0Z"/>
    </g>
    <g id="inner_circle" class="cls-9">
      <path class="cls-10" d="M180,191.15l-4.24-.07a49.2,49.2,0,0,0,48,49.53l.07-4.24A45,45,0,0,1,180,191.15Z"/>
      <path class="cls-10" d="M225.63,146.47a45,45,0,0,1,44.25,45.67c0,.14,0,.28,0,.42l4.24.07c0-.15,0-.29,0-.43a49.2,49.2,0,0,0-48.43-50h-.42l-.07,4.24Z"/>
    </g>
    <circle id="HTML_placeholder" class="cls-11" cx="224.99" cy="191.49" r="42.5"/>
    <text id="year" class="cls-12" transform="translate(204.2 198.76)">1995</text>
  </g>
  <g id="dataPoint_high">
    <g>
      <line class="cls-1" x1="75" y1="286" x2="75" y2="283"/>
      <line class="cls-13" x1="75" y1="270.68" x2="75" y2="239.89"/>
      <line class="cls-14" x1="75" y1="236.2" x2="75" y2="185.7"/>
      <line class="cls-1" x1="75" y1="182" x2="75" y2="179"/>
    </g>
    <circle id="blur-2" filter="url(#blurMe)" data-name="blur" class="cls-4" cx="74.99" cy="116.99" r="42.5"/>
    <g id="outer_circle-2" data-name="outer_circle" class="cls-5">
      <path class="cls-6" d="M74.49,64V59A58,58,0,0,0,17,116.49h5A53,53,0,0,1,74.49,64Z"/>
      <path class="cls-6" d="M128,117a53,53,0,0,1-53,53h-.5v5H75a58,58,0,0,0,58-58c0-.16,0-.33,0-.5h-5C128,116.66,128,116.83,128,117Z"/>
    </g>
    <g id="thin_circle-2" data-name="thin_circle">
      <path id="thin_circle_hidden-2" data-name="thin_circle_hidden" class="cls-8" d="M23,117a52,52,0,0,0,51.5,52v-1.5a50.5,50.5,0,1,1,51-50.49c0,.17,0,.33,0,.5H127c0-.17,0-.33,0-.5a52,52,0,0,0-104,0Z"/>
      <path id="thin_circle_visible-2" data-name="thin_circle_visible" class="cls-7" d="M111.77,153.76a52,52,0,0,0,.35-73.18l-1.06,1.06a50.5,50.5,0,1,1-71.76-.36c.11-.12.24-.23.36-.34L38.6,79.88l-.37.34a52,52,0,0,0,73.54,73.54Z"/>
    </g>
    <g id="inner_circle-2" data-name="inner_circle" class="cls-9">
      <path class="cls-10" d="M30,116.65l-4.24-.07a49.2,49.2,0,0,0,48,49.53l.07-4.24A45,45,0,0,1,30,116.65Z"/>
      <path class="cls-10" d="M75.63,72a45,45,0,0,1,44.25,45.67c0,.14,0,.28,0,.42l4.24.07c0-.15,0-.29,0-.43a49.2,49.2,0,0,0-48.43-50c-.14,0-.28,0-.42,0L75.2,72Z"/>
    </g>
    <circle id="HTML_placeholder-2" data-name="HTML_placeholder" class="cls-11" cx="74.99" cy="116.77" r="42.5"/>
    <text id="year-2" data-name="year" class="cls-12" transform="translate(53.99 122.62)">1943</text>
  </g>
</svg>
