<svg id="movie_dates" xmlns="http://www.w3.org/2000/svg" width="1091" height="350" viewBox="0 0 1091 350">
  <defs>
    <style>
      .cls-1 {
        fill: none;
        stroke: #000;
        stroke-miterlimit: 10;
        stroke-width: 3px;
      }

    </style>
  </defs>
  <title>Avengers Movie Timeline</title>
  <g id="timeline">
    <g id="steps">
      <line class="cls-1" x1="30.29" y1="264" x2="30.29" y2="286"/>
      <line class="cls-1" x1="55.4" y1="264" x2="55.4" y2="286"/>
      <line class="cls-1" x1="105.6" y1="264" x2="105.6" y2="286"/>
      <line class="cls-1" x1="130.71" y1="264" x2="130.71" y2="286"/>
      <line class="cls-1" x1="155.81" y1="264" x2="155.81" y2="286"/>
      <line class="cls-1" x1="181" y1="264" x2="181" y2="286"/>
      <line class="cls-1" x1="206.02" y1="263.5" x2="206.02" y2="285.5"/>
    </g>
    <g id="_line_" data-name="&lt;line&gt;">
      <line class="cls-1" x1="18" y1="274.5" x2="962" y2="274.5"/>
    </g>
  </g>
  <g id="ironman_1">
    <line class="cls-1" x1="231.12" y1="285.5" x2="231.12" y2="253.5"/>
    <g id="outer_cicle">
      <path d="M230.62,138.51v-5A58,58,0,0,0,173.13,191h5A53,53,0,0,1,230.62,138.51Z"/>
      <path d="M284.12,191.5a53,53,0,0,1-53,53h-.5v5h.5a58,58,0,0,0,58-58c0-.17,0-.33,0-.5h-5C284.11,191.17,284.12,191.33,284.12,191.5Z"/>
    </g>
    <path id="thin_circle" d="M267.9,228.27a52,52,0,0,0,.34-73.18l-1.06,1.06a50.49,50.49,0,1,1-71.76-.36l.36-.35-1.06-1.06-.36.35a52,52,0,0,0,73.54,73.54Z"/>
    <g id="inner_cicle">
      <path d="M186.09,191.15l-4.25-.07a49.2,49.2,0,0,0,48,49.54l.07-4.24A45,45,0,0,1,186.09,191.15Z"/>
      <path d="M231.75,146.47A45,45,0,0,1,276,192.14c0,.14,0,.28,0,.43l4.24.06c0-.14,0-.28,0-.42a49.21,49.21,0,0,0-48.42-50h-.43l-.06,4.24Z"/>
    </g>
    <circle cx="231.12" cy="191.5" r="42.5"/>
  </g>
  <g id="captain_a_1">
    <line class="cls-1" x1="80.49" y1="286" x2="80.49" y2="179"/>
    <g id="outer_cicle-2" data-name="outer_cicle">
      <path d="M80,64V59A58,58,0,0,0,22.51,116.5h5A53,53,0,0,1,80,64Z"/>
      <path d="M133.49,117a53,53,0,0,1-53,53H80v5h.5a58,58,0,0,0,58-58c0-.17,0-.33,0-.5h-5C133.48,116.67,133.49,116.83,133.49,117Z"/>
    </g>
    <path id="thin_circle-2" data-name="thin_circle" d="M117.27,153.77a52,52,0,0,0,.35-73.18l-1.06,1.06a50.49,50.49,0,1,1-71.76-.36c.11-.12.24-.23.36-.35L44.1,79.88l-.37.35a52,52,0,0,0,73.54,73.54Z"/>
    <g id="inner_cicle-2" data-name="inner_cicle">
      <path d="M35.46,116.65l-4.24-.07a49.2,49.2,0,0,0,48,49.54l.07-4.24A45,45,0,0,1,35.46,116.65Z"/>
      <path d="M81.13,72a45,45,0,0,1,44.25,45.67c0,.14,0,.28,0,.43l4.24.06c0-.14,0-.28,0-.42a49.21,49.21,0,0,0-48.43-50h-.42L80.7,72Z"/>
    </g>
    <circle id="HTML_placeholder" cx="80.49" cy="117" r="42.5"/>
  </g>
</svg>
